<svg width="128" height="40" viewBox="0 0 128 40" fill="none" xmlns="http://www.w3.org/2000/svg">
<path fill-rule="evenodd" clip-rule="evenodd" d="M31.6459 26.4061V14.3292C31.6459 13.7218 31.1571 13.2295 30.5538 13.2295H28.1248C27.5215 13.2295 27.0327 13.7218 27.0327 14.3292V26.4061C27.0327 34.3683 31.133 39.5729 37.6258 39.5729C39.7572 39.5729 41.6898 38.7344 43.0803 37.3828C43.7741 36.7086 44.9292 37.1997 44.9292 38.1711C44.9292 38.7784 45.418 39.2708 46.021 39.2708H48.4502C49.0533 39.2708 49.5424 38.7784 49.5424 38.1711V14.3292C49.5424 13.7218 49.0533 13.2295 48.4502 13.2295H46.021C45.418 13.2295 44.9292 13.7218 44.9292 14.3292V26.3668C44.9292 31.3569 42.1957 34.9243 38.3951 34.9243C34.2948 34.9243 31.6459 31.6151 31.6459 26.4061ZM123.382 26.5677V38.6551C123.382 39.1812 123.806 39.608 124.328 39.608H127.039C127.561 39.608 127.985 39.1812 127.985 38.6551V26.5677C127.985 18.5532 123.898 13.3108 117.318 13.3108C115.056 13.3108 113.018 14.2464 111.605 15.7363C111.009 16.3649 109.962 15.9643 109.962 15.0948V1.08152C109.962 0.555368 109.539 0.128906 109.016 0.128906H106.306C105.784 0.128906 105.36 0.555368 105.36 1.08152V38.6551C105.36 39.1812 105.784 39.608 106.306 39.608H109.016C109.539 39.608 109.962 39.1812 109.962 38.6551V26.6111C109.962 21.5858 112.758 17.9468 116.543 17.9468C120.716 17.9468 123.382 21.3258 123.382 26.5677ZM96.501 26.5677V38.6551C96.501 39.1812 96.9244 39.608 97.4467 39.608H100.157C100.68 39.608 101.103 39.1812 101.103 38.6551V26.5677C101.103 18.5532 97.0172 13.3108 90.4364 13.3108C88.1751 13.3108 86.1366 14.2464 84.7237 15.7363C84.1274 16.3649 83.0811 15.9643 83.0811 15.0948V1.08152C83.0811 0.555368 82.6577 0.128906 82.135 0.128906H79.4247C78.9023 0.128906 78.4789 0.555368 78.4789 1.08152V38.6551C78.4789 39.1812 78.9023 39.608 79.4247 39.608H82.135C82.6577 39.608 83.0811 39.1812 83.0811 38.6551V26.6111C83.0811 21.5858 85.877 17.9468 89.662 17.9468C93.8343 17.9468 96.501 21.3258 96.501 26.5677ZM18.3094 26.5677V38.6551C18.3094 39.1812 18.7329 39.608 19.2552 39.608H21.9658C22.4882 39.608 22.9116 39.1812 22.9116 38.6551V26.5677C22.9116 18.5532 18.8257 13.3108 12.2449 13.3108C9.98334 13.3108 7.94511 14.2464 6.53223 15.7363C5.93591 16.3649 4.8893 15.9643 4.8893 15.0948V1.08152C4.8893 0.555368 4.4659 0.128906 3.94351 0.128906H1.23321C0.710823 0.128906 0.287109 0.555368 0.287109 1.08152V38.6551C0.287109 39.1812 0.710823 39.608 1.23321 39.608H3.94351C4.4659 39.608 4.8893 39.1812 4.8893 38.6551V26.6111C4.8893 21.5858 7.68545 17.9468 11.4705 17.9468C15.6428 17.9468 18.3094 21.3258 18.3094 26.5677Z" fill="white"/>
<path d="M58.9606 20.9583L58.9493 21.034C58.9188 21.2466 58.737 21.402 58.529 21.402C58.511 21.402 58.4926 21.4008 58.474 21.3986C58.2437 21.3679 58.0802 21.1583 58.1074 20.9263L58.1224 20.8269L58.137 20.7309C58.4434 18.2248 60.8742 16.4026 63.9169 16.4026L64.0192 16.4035C66.5685 16.4035 68.4662 17.5205 69.6558 19.7235C69.7676 19.9306 69.6916 20.1903 69.4857 20.3029C69.2801 20.4162 69.0222 20.3386 68.9104 20.1319C67.8666 18.198 66.2652 17.2577 64.0156 17.2577L63.9132 17.2571C61.3511 17.2571 59.2282 18.7971 58.9787 20.8392C58.9771 20.8506 58.9686 20.9066 58.9606 20.9583Z" fill="url(#paint0_linear_408_497)"/>
<path d="M64.3327 25.638C68.0181 26.574 70.6263 27.5389 70.6263 31.4497C70.6263 34.4334 67.9078 36.5171 64.0156 36.5171C61.1647 36.5171 58.7049 35.0669 57.5957 32.7325C57.4946 32.5195 57.5838 32.2645 57.7952 32.1626C58.0066 32.0605 58.2598 32.1509 58.361 32.3639C59.3278 34.3986 61.4944 35.6626 64.0156 35.6626C67.4083 35.6626 69.778 33.9303 69.778 31.4497C69.778 28.2525 67.9677 27.4426 64.1252 26.4663L63.6756 26.3482C62.5737 26.0537 60.7288 25.5605 59.4641 24.3589C59.2939 24.1971 59.286 23.9266 59.4467 23.7549C59.6074 23.5839 59.8759 23.5755 60.0463 23.7371C61.1541 24.7895 62.8673 25.248 63.8918 25.5222L63.8934 25.5226L64.3327 25.638Z" fill="url(#paint1_linear_408_497)"/>
<path d="M67.4135 19.666C67.5702 19.8414 67.5562 20.1116 67.3824 20.2694C67.3011 20.3432 67.1997 20.3792 67.0986 20.3792C66.9825 20.3792 66.8667 20.3319 66.7833 20.238C66.1781 19.5614 65.4306 19.2159 64.431 19.1506C64.1973 19.1352 64.0198 18.9322 64.0351 18.6965C64.0504 18.4608 64.2548 18.2842 64.486 18.298C65.7205 18.3786 66.6507 18.8134 67.4135 19.666Z" fill="url(#paint2_linear_408_497)"/>
<path d="M72.5137 31.4617C72.5137 32.5552 72.2317 33.5789 71.6754 34.5051C71.5957 34.638 71.4554 34.7112 71.3122 34.7112C71.237 34.7112 71.1613 34.6912 71.0928 34.6494C70.8924 34.5272 70.8283 34.2648 70.9496 34.0629C71.4246 33.2722 71.6653 32.3968 71.6653 31.4617C71.6653 26.6743 67.874 25.7107 64.5291 24.8606L64.5285 24.8605L64.183 24.7703L64.182 24.7701C62.6382 24.3556 60.0555 23.6621 60.0555 21.2309C60.0659 20.7792 60.1704 20.3675 60.3662 19.9983C60.4765 19.7897 60.7328 19.7115 60.9399 19.822C61.1467 19.9334 61.2249 20.1922 61.1146 20.4002C60.9818 20.6512 60.9109 20.9337 60.9038 21.2408C60.9042 22.8703 62.5584 23.45 64.4014 23.9448L64.7362 24.0322C68.0184 24.866 72.5137 26.0085 72.5137 31.4617Z" fill="url(#paint3_linear_408_497)"/>
<path d="M69.1401 36.4349C69.2507 36.6429 69.1731 36.902 68.9663 37.0131C67.5586 37.7722 65.8467 38.1731 64.0156 38.1731C60.3888 38.1731 57.0849 36.1949 55.7945 33.2506C55.7026 33.0411 55.6427 32.8214 55.6167 32.5977C55.5893 32.3635 55.7557 32.1512 55.9885 32.1239C56.2204 32.0946 56.4318 32.2635 56.4593 32.4983C56.4755 32.6371 56.5128 32.7743 56.5705 32.9057C57.7277 35.5451 60.7193 37.3189 64.0156 37.3189C65.7074 37.3189 67.2809 36.9525 68.5661 36.2599C68.7729 36.1485 69.0296 36.2269 69.1401 36.4349Z" fill="url(#paint4_linear_408_497)"/>
<path d="M68.9462 31.5017C68.9462 32.2242 68.6569 32.8931 68.1097 33.4355C67.2611 34.2774 65.8204 34.7734 64.238 34.7734C64.1982 34.7734 64.1588 34.7731 64.1188 34.7725C63.1504 34.7583 62.2199 34.5242 61.4287 34.0952C60.7995 33.7544 60.4066 33.2877 60.1717 33.0086L60.1716 33.0085C60.1368 32.9669 60.105 32.9294 60.0769 32.8971C59.9211 32.7208 59.9367 32.4509 60.1114 32.294C60.2871 32.1371 60.555 32.1525 60.7105 32.3291C60.7413 32.364 60.7755 32.4045 60.8133 32.4492L60.8189 32.4559L60.819 32.456C61.0277 32.704 61.3429 33.0787 61.8307 33.3429C62.5028 33.7069 63.2983 33.906 64.1317 33.918C65.536 33.9417 66.8032 33.5322 67.5146 32.8266C67.9014 32.4429 68.0978 31.9971 68.0978 31.5017C68.0978 31.054 68.0004 30.6669 67.7997 30.3183C67.6924 30.1325 67.5522 29.9534 67.383 29.7869C67.2156 29.622 67.2125 29.3515 67.3762 29.1826C67.54 29.014 67.8085 29.0112 67.9762 29.1759C68.2002 29.3965 68.3877 29.6368 68.5334 29.89C68.8075 30.3654 68.9462 30.9079 68.9462 31.5017Z" fill="url(#paint5_linear_408_497)"/>
<path d="M64.1668 27.3903C64.3941 27.4479 64.5318 27.6805 64.4744 27.9091C64.4258 28.1029 64.2532 28.2319 64.0635 28.2319C64.029 28.2319 63.9942 28.2275 63.9594 28.2186C63.6618 28.1432 63.3426 28.0691 63.0102 27.9983C60.068 27.3743 56.1562 25.9999 56.1562 21.2952C56.1562 17.326 59.3294 14.6589 64.0519 14.6589C66.8704 14.6589 70.4296 16.2648 71.5838 19.7909C71.6571 20.0152 71.5361 20.2565 71.3137 20.3306C71.0916 20.4045 70.8512 20.2823 70.7782 20.0583C69.756 16.9355 66.575 15.5131 64.0519 15.5131C59.8368 15.5131 57.0049 17.8371 57.0049 21.2952C57.0049 24.446 58.9108 26.2552 63.1852 27.1623C63.5286 27.2352 63.8588 27.3122 64.1668 27.3903Z" fill="url(#paint6_linear_408_497)"/>
<path d="M72.2112 25.9146C73.5578 27.1448 74.1581 28.8555 74.1581 31.4617C74.1581 36.3106 69.8926 39.8294 64.0156 39.8294C60.0497 39.8294 56.2201 37.6294 54.4855 34.3552L54.4461 34.2814C54.3096 34.0315 54.0258 33.5106 53.7939 32.7365C53.7264 32.5106 53.8532 32.2725 54.0777 32.2042C54.3016 32.1352 54.5384 32.2635 54.6062 32.4897C54.8124 33.178 55.0672 33.6457 55.1897 33.8703L55.2343 33.9534C56.8253 36.9568 60.354 38.9749 64.0156 38.9749C69.401 38.9749 73.3098 35.8149 73.3098 31.4617C73.3098 29.0857 72.8106 27.6159 71.6415 26.5475C71.468 26.3888 71.4548 26.1186 71.6122 25.9439C71.7695 25.7697 72.038 25.7562 72.2112 25.9146Z" fill="url(#paint7_linear_408_497)"/>
<path d="M62.7487 28.9454C62.9745 29.0091 63.1061 29.2445 63.0432 29.4719C62.9906 29.6608 62.8202 29.7845 62.6348 29.7845C62.5969 29.7845 62.5584 29.7792 62.5202 29.7685L62.5199 29.7684C60.5227 29.2059 55.8467 27.8888 54.5958 23.606C54.5295 23.3795 54.6581 23.142 54.883 23.0755C55.1075 23.0082 55.3436 23.1383 55.4096 23.3645C56.5277 27.1936 60.7292 28.3767 62.7485 28.9454L62.7487 28.9454Z" fill="url(#paint8_linear_408_497)"/>
<path d="M63.8451 13.8555C59.2548 13.8555 55.7976 16.3497 55.2126 20.1075C55.1796 20.3183 54.9994 20.4688 54.7941 20.4688C54.7721 20.4688 54.7501 20.4672 54.7275 20.4632C54.4962 20.4269 54.338 20.2085 54.3743 19.9749C55.0363 15.7242 58.9292 12.9162 64.0586 13.0029C64.2929 13.0066 64.4799 13.2008 64.4763 13.4365C64.4726 13.6725 64.2868 13.8546 64.0455 13.8571C63.9786 13.8562 63.9114 13.8555 63.8451 13.8555Z" fill="url(#paint9_linear_408_497)"/>
<path d="M72.5998 19.8712C72.612 20.0992 72.7993 20.2759 73.0232 20.2759C73.0309 20.2759 73.0385 20.2759 73.0461 20.2752C73.2801 20.2626 73.4598 20.0614 73.4472 19.826C73.4188 19.2875 72.2439 15.3445 67.9368 13.7042C67.7175 13.6211 67.4728 13.7325 67.39 13.9528C67.3072 14.1737 67.4178 14.4202 67.6368 14.5039C71.3482 15.9168 72.5363 19.3134 72.5998 19.8712Z" fill="url(#paint10_linear_408_497)"/>
<defs>
<linearGradient id="paint0_linear_408_497" x1="74.1581" y1="29.8879" x2="53.803" y2="29.1427" gradientUnits="userSpaceOnUse">
<stop stop-color="#E54D60"/>
<stop offset="1" stop-color="#A342FF"/>
</linearGradient>
<linearGradient id="paint1_linear_408_497" x1="74.1581" y1="29.8879" x2="53.803" y2="29.1427" gradientUnits="userSpaceOnUse">
<stop stop-color="#E54D60"/>
<stop offset="1" stop-color="#A342FF"/>
</linearGradient>
<linearGradient id="paint2_linear_408_497" x1="74.1581" y1="29.8879" x2="53.803" y2="29.1427" gradientUnits="userSpaceOnUse">
<stop stop-color="#E54D60"/>
<stop offset="1" stop-color="#A342FF"/>
</linearGradient>
<linearGradient id="paint3_linear_408_497" x1="74.1581" y1="29.8879" x2="53.803" y2="29.1427" gradientUnits="userSpaceOnUse">
<stop stop-color="#E54D60"/>
<stop offset="1" stop-color="#A342FF"/>
</linearGradient>
<linearGradient id="paint4_linear_408_497" x1="74.1581" y1="29.8879" x2="53.803" y2="29.1427" gradientUnits="userSpaceOnUse">
<stop stop-color="#E54D60"/>
<stop offset="1" stop-color="#A342FF"/>
</linearGradient>
<linearGradient id="paint5_linear_408_497" x1="74.1581" y1="29.8879" x2="53.803" y2="29.1427" gradientUnits="userSpaceOnUse">
<stop stop-color="#E54D60"/>
<stop offset="1" stop-color="#A342FF"/>
</linearGradient>
<linearGradient id="paint6_linear_408_497" x1="74.1581" y1="29.8879" x2="53.803" y2="29.1427" gradientUnits="userSpaceOnUse">
<stop stop-color="#E54D60"/>
<stop offset="1" stop-color="#A342FF"/>
</linearGradient>
<linearGradient id="paint7_linear_408_497" x1="74.1581" y1="29.8879" x2="53.803" y2="29.1427" gradientUnits="userSpaceOnUse">
<stop stop-color="#E54D60"/>
<stop offset="1" stop-color="#A342FF"/>
</linearGradient>
<linearGradient id="paint8_linear_408_497" x1="74.1581" y1="29.8879" x2="53.803" y2="29.1427" gradientUnits="userSpaceOnUse">
<stop stop-color="#E54D60"/>
<stop offset="1" stop-color="#A342FF"/>
</linearGradient>
<linearGradient id="paint9_linear_408_497" x1="74.1581" y1="29.8879" x2="53.803" y2="29.1427" gradientUnits="userSpaceOnUse">
<stop stop-color="#E54D60"/>
<stop offset="1" stop-color="#A342FF"/>
</linearGradient>
<linearGradient id="paint10_linear_408_497" x1="74.1581" y1="29.8879" x2="53.803" y2="29.1427" gradientUnits="userSpaceOnUse">
<stop stop-color="#E54D60"/>
<stop offset="1" stop-color="#A342FF"/>
</linearGradient>
</defs>
</svg>
